<svg id="visual" viewBox="0 0 540 2960" width="540" height="2960" xmlns="http://www.w3.org/2000/svg" xmlns:xlink="http://www.w3.org/1999/xlink" version="1.1"><path d="M74 0L76.2 22.5C78.3 45 82.7 90 76.3 134.8C70 179.7 53 224.3 57.5 269.2C62 314 88 359 109 403.8C130 448.7 146 493.3 158.8 538.2C171.7 583 181.3 628 184.5 672.8C187.7 717.7 184.3 762.3 156.3 807.2C128.3 852 75.7 897 67.2 941.8C58.7 986.7 94.3 1031.3 114.7 1076.2C135 1121 140 1166 130.2 1210.8C120.3 1255.7 95.7 1300.3 93.5 1345.2C91.3 1390 111.7 1435 112.7 1480C113.7 1525 95.3 1570 83.8 1614.8C72.3 1659.7 67.7 1704.3 67.3 1749.2C67 1794 71 1839 75.3 1883.8C79.7 1928.7 84.3 1973.3 101 2018.2C117.7 2063 146.3 2108 144.3 2152.8C142.3 2197.7 109.7 2242.3 100.3 2287.2C91 2332 105 2377 96.5 2421.8C88 2466.7 57 2511.3 69.5 2556.2C82 2601 138 2646 160.5 2690.8C183 2735.7 172 2780.3 157.5 2825.2C143 2870 125 2915 116 2937.5L107 2960" fill="none" stroke-linecap="round" stroke-linejoin="miter" stroke="#531436" stroke-width="40"></path></svg>